:SAMPLES-PER-SECOND 30
:FRAME-RANGE 1-1770
:FULLY-SPECIFIED
:DEGREES
1494
root  -38.1774 34.5062 -97.5498 -171.7 -20.9438 173.773
RightUpLeg  -40.8826 7.5926 -6.5949
RightLeg  86.849 0.273997 -0.54008
RightFoot  -14.0436 0.0261735 5.1462
RightToes  -1.33073e-015 0 -3.6325e-017
Spine  15.3358 3.23932 -7.57711
Spine1  9.29128 4.65528 -7.25503
HEad  15.788 -32.9662 6.40542
LeftShoulder1  2.36544 -5.84372 -19.6307
LeftArm  -7.83816 -4.8549 -55.1189
LeftForeArm  35.8188 5.28243 -10.3322
LeftHand  0.0244714 6.52692 5.4348
RightShoulder  2.9558 8.14655 19.4881
RightArm  -11.576 43.2774 80.8059
RightForeArm  69.9992 -4.80463 0.544219
RightHand  0.22639 -6.9042 -18.4054
LeftUpLeg  -42.5582 0.188225 -3.80021
LeftLeg  51.9706 -2.43865 -2.83657
LeftFoot  -13.4297 0.0648813 -0.860316
LeftToes  1.09107e-011 -1.16422e-010 2.98337e-011
1495
root  -38.6206 35.2967 -98.855 -171.758 -20.7462 175.037
RightUpLeg  -43.9479 6.93466 -5.94326
RightLeg  75.7312 -0.462713 -3.33755
RightFoot  -15.026 0.0668446 5.24364
RightToes  -1.33073e-015 0 -3.6325e-017
Spine  15.819 2.65865 -6.9479
Spine1  8.06445 4.04263 -6.31415
HEad  15.2819 -34.1567 7.60286
LeftShoulder1  2.34856 -6.09349 -18.697
LeftArm  -9.1916 -7.58364 -56.1913
LeftForeArm  29.1344 -1.29178 -9.88157
LeftHand  -0.0930159 4.20724 7.54141
RightShoulder  2.95555 7.83981 20.249
RightArm  -13.5815 40.7157 78.7012
RightForeArm  69.6172 -4.83314 0.624645
RightHand  0.247022 -6.91859 -19.6509
LeftUpLeg  -38.7823 -0.281283 -2.35387
LeftLeg  49.1231 -2.03335 -2.03683
LeftFoot  -14.3982 0.0472296 -1.46584
LeftToes  1.09107e-011 -1.16422e-010 2.98337e-011
1496
root  -39.0279 36.1474 -100.078 -171.624 -20.6993 176.779
RightUpLeg  -45.0832 6.12376 -4.66832
RightLeg  60.541 -2.38226 -5.06211
RightFoot  -12.1238 -0.0582189 3.51485
RightToes  -1.33073e-015 0 -3.6325e-017
Spine  15.9996 2.04242 -5.68154
Spine1  6.82872 3.34197 -4.98143
HEad  14.6892 -35.3826 9.00553
LeftShoulder1  2.32241 -6.28563 -17.8605
LeftArm  -10.0433 -10.2193 -56.5935
LeftForeArm  24.1538 -7.42206 -9.34181
LeftHand  -0.224061 2.0433 7.54517
RightShoulder  2.92409 7.46541 20.9226
RightArm  -15.8535 37.573 75.9765
RightForeArm  68.0093 -4.92269 0.788935
RightHand  0.242696 -6.76491 -21.2615
LeftUpLeg  -35.4726 -1.30253 -0.277164
LeftLeg  45.7413 -1.53158 -1.23506
LeftFoot  -14.2048 0.0126296 -2.90092
LeftToes  1.09107e-011 -1.16422e-010 2.98337e-011
1497
root  -39.4029 36.8678 -101.254 -171.236 -21.0688 178.647
RightUpLeg  -44.2528 5.45491 -3.18124
RightLeg  42.5167 -5.93955 -6.08762
RightFoot  -7.33695 -0.165067 3.29399
RightToes  -1.33073e-015 0 -3.6325e-017
Spine  15.623 1.46137 -3.93635
Spine1  6.02828 2.56138 -3.37894
HEad  14.6353 -36.4968 8.14185
LeftShoulder1  2.27814 -6.53103 -16.7153
LeftArm  -7.35867 -12.9437 -56.969
LeftForeArm  19.1143 -12.3258 -8.23605
LeftHand  -0.47444 -0.433611 9.56056
RightShoulder  2.82403 6.82905 21.6848
RightArm  -17.6674 34.3052 72.7622
RightForeArm  67.4684 -5.01402 1.20639
RightHand  0.303624 -6.96438 -22.8537
LeftUpLeg  -32.8 -2.37066 1.87916
LeftLeg  42.5374 -1.07128 -0.634306
LeftFoot  -13.9533 -0.00261991 -3.78165
LeftToes  1.09107e-011 -1.16422e-010 2.98337e-011
1498
root  -39.7549 37.234 -102.626 -170.838 -21.8766 179.098
RightUpLeg  -41.2783 4.50441 -2.92888
RightLeg  25.5587 -9.27765 -5.01764
RightFoot  -6.82549 -0.271347 5.69844
RightToes  -1.33073e-015 0 -3.6325e-017
Spine  14.1204 0.924129 -4.13881
Spine1  6.19634 1.59519 -1.52304
HEad  15.3636 -38.2379 8.40085
LeftShoulder1  2.31425 -7.23011 -15.4116
LeftArm  -5.66338 -14.838 -56.7137
LeftForeArm  16.3785 -14.5551 -7.42839
LeftHand  -0.188592 2.35949 6.90445
RightShoulder  2.72646 6.12332 22.7974
RightArm  -19.2843 30.8576 68.864
RightForeArm  68.0285 -5.07673 1.70197
RightHand  0.356457 -7.14372 -23.8734
LeftUpLeg  -29.9221 -3.30797 2.65402
LeftLeg  40.4942 -1.03417 -0.541868
LeftFoot  -15.2056 -0.0499175 -4.17901
LeftToes  1.09107e-011 -1.16422e-010 2.98337e-011
1499
root  -40.0537 37.186 -104.112 -171.13 -23.2934 178.777
RightUpLeg  -37.8294 2.23131 -2.57947
RightLeg  15.0399 -10.5058 -3.40218
RightFoot  -9.48081 -0.180093 7.10982
RightToes  -1.33073e-015 0 -3.6325e-017
Spine  12.5863 0.371442 -5.47393
Spine1  6.69653 0.316188 0.809441
HEad  14.6465 -40.4769 9.35574
LeftShoulder1  2.39764 -8.1064 -14.3623
LeftArm  -5.01511 -16.7275 -55.5367
LeftForeArm  15.6877 -12.9043 -8.20575
LeftHand  -0.25477 1.74995 7.96546
RightShoulder  2.56146 5.30845 23.6564
RightArm  -20.8678 27.3464 65.0278
RightForeArm  69.0076 -5.08528 1.97423
RightHand  0.392596 -7.30377 -24.0336
LeftUpLeg  -26.8294 -4.7928 2.76167
LeftLeg  40.3833 -1.00695 -0.515159
LeftFoot  -18.1647 -0.144423 -4.24714
LeftToes  1.09107e-011 -1.16422e-010 2.98337e-011
